<svg width="28" height="28" viewBox="0 0 28 28" fill="none" xmlns="http://www.w3.org/2000/svg">
<rect width="28" height="28" rx="14" fill="#2F323A"/>
<g clip-path="url(#clip0_464_2091)">
<path d="M18.629 10.2496H13.25C12.0565 10.2496 10.9119 10.7237 10.068 11.5676C9.22411 12.4115 8.75 13.5561 8.75 14.7496C8.75 15.9431 9.22411 17.0877 10.068 17.9316C10.9119 18.7755 12.0565 19.2496 13.25 19.2496H20V20.7496H13.25C11.6587 20.7496 10.1326 20.1175 9.00736 18.9923C7.88214 17.867 7.25 16.3409 7.25 14.7496C7.25 13.1583 7.88214 11.6322 9.00736 10.507C10.1326 9.38175 11.6587 8.74961 13.25 8.74961H18.629L16.727 6.84761L17.7875 5.78711L21.5 9.49961L17.7875 13.2121L16.727 12.1516L18.629 10.2496Z" fill="#606673"/>
</g>
<defs>
<clipPath id="clip0_464_2091">
<rect width="18" height="18" fill="white" transform="translate(5 5)"/>
</clipPath>
</defs>
</svg>
