<svg width="175" height="135" viewBox="0 0 175 135" fill="none" xmlns="http://www.w3.org/2000/svg">
<g clip-path="url(#clip0_1945_10945)">
<path d="M82.9747 23.4682C82.2687 24.3342 81.2327 24.8656 80.1174 24.9335L73.8809 25.3134C71.7741 25.4417 69.9302 23.911 69.6685 21.8167L67.59 5.18007C67.3595 3.33536 68.4304 1.57502 70.1745 0.931479L81.6894 -3.31726C83.0799 -3.83035 84.6402 -3.53243 85.7439 -2.5431L89.9745 1.24911C91.1336 2.28809 91.5847 3.90511 91.1308 5.39404L87.431 17.5306C87.2797 18.027 87.0332 18.4892 86.7053 18.8915L82.9747 23.4682Z" fill="#191B1E" fill-opacity="0.6"/>
<path d="M93.2387 87.5393C92.4197 88.6094 92.1946 90.02 92.6397 91.2919L100.641 114.152C101.358 116.2 103.577 117.303 105.643 116.638L160.842 98.8639C162.537 98.3182 163.667 96.7184 163.614 94.939L162.407 53.8317C162.361 52.2563 161.394 50.855 159.937 50.2527L139.294 41.7164C137.59 41.0115 135.655 41.13 134.049 42.0376L124.212 47.5978C123.742 47.8632 123.331 48.2208 123.003 48.649L93.2387 87.5393Z" fill="#191B1E"/>
<path d="M213.337 119.633C214.156 118.562 214.382 117.152 213.936 115.88L205.935 93.0196C205.218 90.9715 202.999 89.8685 200.933 90.5336L145.734 108.308C144.039 108.854 142.909 110.453 142.962 112.233L144.169 153.34C144.215 154.916 145.182 156.317 146.639 156.919L167.282 165.455C168.987 166.16 170.921 166.042 172.527 165.134L182.365 159.574C182.834 159.309 183.245 158.951 183.573 158.523L213.337 119.633Z" fill="#191B1E"/>
<path d="M72.0594 34.4254L80.1258 45.123C83.7397 49.9156 86.6613 55.1928 88.8049 60.7994L93.2907 72.5322C94.4264 75.5025 98.4064 76.024 100.269 73.4466L117.202 50.015C118.187 48.6515 118.214 46.8173 117.269 45.4255L107.965 31.7189C107.273 30.6994 106.15 30.0557 104.92 29.9743L75.5176 28.0259C72.1009 27.7995 69.9977 31.6913 72.0594 34.4254Z" fill="#191B1E" fill-opacity="0.6"/>
<path d="M34.3241 17.2571L21.5347 35.5117C18.3545 40.051 20.6418 46.3705 25.9907 47.8226L41.7145 52.0913C43.0454 52.4526 44.4685 52.1029 45.4803 51.1658L67.0449 31.1952C68.2791 30.0522 68.6663 28.2591 68.0138 26.7087L63.0238 14.853C62.3173 13.1744 60.5662 12.185 58.7638 12.446L37.0268 15.5936C35.9351 15.7517 34.9571 16.3536 34.3241 17.2571Z" fill="#191B1E"/>
<path d="M163.21 22.0749C165.015 24.5056 165.053 27.8211 163.303 30.2921L157.201 38.9127C155.154 41.8046 151.268 42.7108 148.153 41.023L143.817 38.6741C142.473 37.9459 140.928 37.6778 139.417 37.9106L126.111 39.9613C121.728 40.6367 117.83 37.1183 118.054 32.6893L118.668 20.5512C118.79 18.1412 120.144 15.9639 122.252 14.7896L135.183 7.58639C135.549 7.38263 135.932 7.21209 136.328 7.07684L144.056 4.43927C146.937 3.45598 150.123 4.44719 151.938 6.89125L163.21 22.0749Z" fill="#191B1E" fill-opacity="0.6"/>
<path d="M66.7126 46.0169C70.7418 44.4735 75.269 46.4032 76.9457 50.3788L80.6124 59.0731C81.5911 61.3937 81.4199 64.0396 80.1503 66.2147L56.7482 106.308C53.5321 111.818 45.4762 111.531 42.6604 105.806L25.5977 71.1147C23.5207 66.8916 25.5198 61.7968 29.9146 60.1133L66.7126 46.0169Z" fill="#191B1E"/>
<path d="M10.9215 96.5347C11.7824 93.2723 14.3957 90.7655 17.691 90.041L18.5835 89.8448C21.5537 89.1918 24.6528 90.0829 26.8224 92.2138L35.5895 100.824C36.1348 101.36 36.6096 101.963 37.0025 102.618L53.4654 130.082C53.7322 130.527 53.96 130.994 54.1462 131.479L64.0338 157.189C65.69 161.495 63.8211 166.357 59.7065 168.445L56.9389 169.849C53.4188 171.636 49.1453 170.92 46.3996 168.084L29.3374 150.458C28.5684 149.664 27.9524 148.735 27.5201 147.717L10.1559 106.836C9.3751 104.998 9.22791 102.953 9.73748 101.022L10.9215 96.5347Z" fill="#191B1E"/>
<rect opacity="0.8" width="160" height="62" transform="matrix(1 0 0 -1 15 62)" fill="url(#paint0_linear_1945_10945)"/>
<path d="M95.2949 57.5L172 136.5H49L95.2949 57.5Z" fill="#DEFAAB"/>
<path fill-rule="evenodd" clip-rule="evenodd" d="M94.5895 50.0566L174 135.862H164.514L95.486 60.5635L52.2735 135.862H43.9587L94.5895 50.0566Z" fill="#191B1E"/>
<path d="M97.6505 48.1765L95.1284 49.801L97.6505 53.7165L100.173 49.801L97.6505 48.1765ZM97.6505 48.1765C100.173 49.801 100.173 49.8007 100.173 49.8004L100.174 49.7994L100.176 49.7961L100.183 49.7846L100.21 49.7424C100.234 49.7057 100.268 49.6522 100.312 49.5828C100.4 49.444 100.529 49.2414 100.692 48.9825C101.017 48.4647 101.48 47.7206 102.034 46.8084C103.142 44.9867 104.623 42.4831 106.108 39.7677C107.588 37.0618 109.098 34.0968 110.247 31.3619C111.341 28.7566 112.301 25.9239 112.301 23.6533C112.301 15.5612 105.742 9 97.6505 9C89.5586 9 83 15.5612 83 23.6533C83 25.9239 83.9603 28.7566 85.0544 31.3619C86.203 34.0968 87.7134 37.0618 89.1931 39.7677C90.678 42.4831 92.1591 44.9867 93.2668 46.8084C93.8214 47.7206 94.2843 48.4647 94.6095 48.9825C94.7722 49.2414 94.9006 49.444 94.9889 49.5828C95.0331 49.6522 95.0673 49.7057 95.0908 49.7424L95.1179 49.7846L95.1253 49.7961L95.1274 49.7994L95.1281 49.8004C95.1283 49.8007 95.1284 49.801 97.6505 48.1765Z" fill="#DEFAAB" stroke="#191B1E" stroke-width="6"/>
<ellipse cx="97.6503" cy="23.5018" rx="6.50613" ry="6.5077" fill="#191B1E"/>
<path d="M109.026 97.1807L98.6954 75.5L155 135.5H77L113.675 112.307L100.762 108.273L109.026 97.1807Z" fill="#191B1E"/>
<rect opacity="0.8" x="5" y="73" width="170" height="62" fill="url(#paint1_linear_1945_10945)"/>
</g>
<defs>
<linearGradient id="paint0_linear_1945_10945" x1="80" y1="0" x2="80" y2="62" gradientUnits="userSpaceOnUse">
<stop offset="0.364884" stop-color="#2F323A" stop-opacity="0"/>
<stop offset="0.886358" stop-color="#2F323A"/>
</linearGradient>
<linearGradient id="paint1_linear_1945_10945" x1="90" y1="73" x2="90" y2="135" gradientUnits="userSpaceOnUse">
<stop offset="0.345331" stop-color="#2F323A" stop-opacity="0"/>
<stop offset="1" stop-color="#2F323A"/>
</linearGradient>
<clipPath id="clip0_1945_10945">
<path d="M0 0H159C167.837 0 175 7.16344 175 16V119C175 127.837 167.837 135 159 135H0V0Z" fill="white"/>
</clipPath>
</defs>
</svg>
