<svg width="375" height="592" viewBox="0 0 375 592" fill="none" xmlns="http://www.w3.org/2000/svg">
<rect opacity="0.5" x="42.2793" y="77.625" width="179" height="285" rx="4" transform="rotate(-4 42.2793 77.625)" fill="url(#paint0_linear_1243_15647)"/>
<rect opacity="0.4" x="98.3867" y="148.885" width="23" height="31" rx="2" transform="rotate(-4 98.3867 148.885)" fill="#7F8596"/>
<rect opacity="0.4" x="148.963" y="155.373" width="23" height="21" rx="2" transform="rotate(-4 148.963 155.373)" fill="#7F8596"/>
<rect opacity="0.4" x="122.697" y="138.164" width="23" height="40" rx="2" transform="rotate(-4 122.697 138.164)" fill="#B8F842"/>
<path opacity="0.4" d="M144.645 119.84L151.288 112.411C152.059 111.523 152.303 110.255 151.852 109.16C151.401 108.066 150.389 107.303 149.218 107.218L139.295 106.452L134.279 97.8362C133.095 95.7921 129.614 96.0355 128.726 98.2245L124.958 107.454L115.239 109.594C114.09 109.841 113.154 110.74 112.859 111.887C112.565 113.034 112.983 114.255 113.87 115.028L121.482 121.46L120.468 131.373C120.342 132.549 120.923 133.718 121.923 134.316C122.925 134.954 124.216 134.948 125.214 134.336L133.674 129.073L142.783 133.107C143.256 133.324 143.762 133.414 144.26 133.379C144.923 133.333 145.53 133.082 146.042 132.671C146.946 131.898 147.362 130.702 147.074 129.554L144.69 119.879L144.645 119.84Z" fill="#B8F842"/>
<rect opacity="0.7" x="67.8867" y="200.137" width="163" height="144" rx="4" transform="rotate(-4 67.8867 200.137)" fill="url(#paint1_linear_1243_15647)"/>
<rect opacity="0.6" x="83.6875" y="211.061" width="133" height="13" rx="2" transform="rotate(-4 83.6875 211.061)" fill="#41444D"/>
<rect opacity="0.6" x="87.2461" y="261.938" width="133" height="9" rx="2" transform="rotate(-4 87.2461 261.938)" fill="#212328"/>
<rect opacity="0.6" x="88.502" y="279.893" width="133" height="9" rx="2" transform="rotate(-4 88.502 279.893)" fill="#212328"/>
<rect opacity="0.6" x="89.7578" y="297.85" width="133" height="9" rx="2" transform="rotate(-4 89.7578 297.85)" fill="#212328"/>
<rect opacity="0.6" x="91.0117" y="315.807" width="133" height="9" rx="2" transform="rotate(-4 91.0117 315.807)" fill="#212328"/>
<rect opacity="0.6" x="85.0137" y="230.016" width="76" height="13" rx="2" transform="rotate(-4 85.0137 230.016)" fill="#41444D"/>
<path d="M143.912 107.502C144.066 105.298 145.978 103.637 148.182 103.791L299.156 114.348C300.214 114.422 301.2 114.913 301.896 115.714L336.834 155.906C337.53 156.707 337.88 157.751 337.806 158.809L319.087 426.499C318.933 428.702 317.021 430.364 314.818 430.21L126.278 417.026C124.074 416.872 122.413 414.96 122.567 412.757L143.912 107.502Z" fill="url(#paint2_linear_1243_15647)"/>
<path d="M337.921 157.156L300.809 114.463L298.018 154.365L337.921 157.156Z" fill="#7F8596"/>
<rect x="150.477" y="257.324" width="163" height="144" rx="4" transform="rotate(4 150.477 257.324)" fill="url(#paint3_linear_1243_15647)"/>
<rect x="164.604" y="270.342" width="133" height="13" rx="2" transform="rotate(4 164.604 270.342)" fill="#41444D"/>
<rect x="161.047" y="321.217" width="62" height="69" rx="2" transform="rotate(4 161.047 321.217)" fill="#212328"/>
<rect x="231.873" y="326.172" width="62" height="69" rx="2" transform="rotate(4 231.873 326.172)" fill="#212328"/>
<rect x="163.277" y="289.295" width="76" height="13" rx="2" transform="rotate(4 163.277 289.295)" fill="#41444D"/>
<circle cx="236.652" cy="186.161" r="42" transform="rotate(-86 236.652 186.161)" fill="#83A445"/>
<path d="M239.581 144.263C249.746 144.974 259.306 149.356 266.479 156.592C273.653 163.829 277.951 173.426 278.573 183.597C279.195 193.767 276.099 203.817 269.861 211.874C263.622 219.931 254.668 225.445 244.666 227.389C234.663 229.334 224.295 227.575 215.493 222.442C206.691 217.309 200.055 209.151 196.822 199.488C193.589 189.825 193.979 179.316 197.919 169.919C201.86 160.522 209.082 152.878 218.24 148.412L236.652 186.161L239.581 144.263Z" fill="#98BF51"/>
<path d="M239.581 144.263C248.336 144.875 256.678 148.214 263.438 153.811C270.197 159.408 275.033 166.981 277.268 175.468C279.502 183.954 279.022 192.927 275.895 201.127C272.768 209.326 267.151 216.341 259.833 221.184C252.515 226.028 243.864 228.457 235.094 228.132C226.325 227.807 217.877 224.743 210.939 219.37C204 213.997 198.918 206.586 196.407 198.177C193.897 189.769 194.083 180.785 196.94 172.487L236.652 186.161L239.581 144.263Z" fill="#AEDB5C"/>
<path d="M239.581 144.263C245.084 144.648 250.456 146.113 255.392 148.574C260.328 151.035 264.731 154.444 268.349 158.607C271.968 162.769 274.731 167.604 276.481 172.834C278.231 178.065 278.934 183.589 278.549 189.091C278.165 194.593 276.7 199.965 274.239 204.901C271.778 209.837 268.369 214.24 264.206 217.859C260.044 221.477 255.209 224.24 249.978 225.991C244.748 227.741 239.224 228.443 233.722 228.059L236.652 186.161L239.581 144.263Z" fill="#C4F668"/>
<defs>
<linearGradient id="paint0_linear_1243_15647" x1="131.779" y1="20.8632" x2="131.779" y2="362.625" gradientUnits="userSpaceOnUse">
<stop stop-color="#41444D"/>
<stop offset="1" stop-color="#212328"/>
</linearGradient>
<linearGradient id="paint1_linear_1243_15647" x1="149.387" y1="200.137" x2="149.387" y2="344.137" gradientUnits="userSpaceOnUse">
<stop stop-color="#383C45"/>
<stop offset="1" stop-color="#1F2126"/>
</linearGradient>
<linearGradient id="paint2_linear_1243_15647" x1="246.814" y1="47.9975" x2="220.548" y2="423.618" gradientUnits="userSpaceOnUse">
<stop stop-color="#5A5F6B"/>
<stop offset="1" stop-color="#212328"/>
</linearGradient>
<linearGradient id="paint3_linear_1243_15647" x1="231.977" y1="257.324" x2="231.977" y2="401.324" gradientUnits="userSpaceOnUse">
<stop stop-color="#2F323A"/>
<stop offset="1" stop-color="#212328"/>
</linearGradient>
</defs>
</svg>
