<svg width="24" height="24" viewBox="0 0 24 24" fill="none" xmlns="http://www.w3.org/2000/svg">
<path d="M17.6176 6.968L19.0706 5.515L20.4846 6.929L19.0316 8.382C20.4673 10.1792 21.1605 12.4579 20.9687 14.7501C20.7768 17.0424 19.7146 19.1742 18.0001 20.7077C16.2856 22.2412 14.0489 23.0601 11.7496 22.9961C9.45018 22.9321 7.26258 21.9901 5.63604 20.3635C4.00951 18.737 3.0675 16.5494 3.00349 14.25C2.93948 11.9506 3.75832 9.71402 5.29185 7.99951C6.82538 6.285 8.95718 5.22275 11.2494 5.03092C13.5417 4.83908 15.8204 5.53223 17.6176 6.968ZM10.9996 9V15H12.9996V9H10.9996ZM7.99957 2H15.9996V4H7.99957V2Z" fill="white"/>
</svg>
