<svg width="64" height="50" viewBox="0 0 64 50" fill="none" xmlns="http://www.w3.org/2000/svg">
<rect x="10.125" y="10.1562" width="35.1562" height="35.1562" fill="#191B1E"/>
<mask id="path-2-outside-1_1945_10944" maskUnits="userSpaceOnUse" x="8.44854" y="-4.47522" width="55.1543" height="55.1543" fill="black">
<rect fill="white" x="8.44854" y="-4.47522" width="55.1543" height="55.1543"/>
<path fill-rule="evenodd" clip-rule="evenodd" d="M35.2119 5.51989L23.424 10.9549L17.989 22.7429L24.3419 29.0958L33.8612 24.7067L41.6543 32.4998L39.4443 34.7098L37.2347 32.5001L33.9201 35.8147L41.6541 43.5487L44.9686 40.2341L42.7589 38.0243L44.9689 35.8144L47.1783 38.0238L50.4929 34.7093L37.1758 21.3922L41.5648 11.8728L35.2119 5.51989Z"/>
</mask>
<path fill-rule="evenodd" clip-rule="evenodd" d="M35.2119 5.51989L23.424 10.9549L17.989 22.7429L24.3419 29.0958L33.8612 24.7067L41.6543 32.4998L39.4443 34.7098L37.2347 32.5001L33.9201 35.8147L41.6541 43.5487L44.9686 40.2341L42.7589 38.0243L44.9689 35.8144L47.1783 38.0238L50.4929 34.7093L37.1758 21.3922L41.5648 11.8728L35.2119 5.51989Z" fill="#5E7CFF"/>
<path d="M23.424 10.9549L21.7884 7.40757L20.4799 8.01087L19.8766 9.31935L23.424 10.9549ZM35.2119 5.51989L37.9741 2.75775L36.0489 0.83255L33.5764 1.97254L35.2119 5.51989ZM17.989 22.7429L14.4416 21.1073L13.3016 23.5798L15.2268 25.505L17.989 22.7429ZM24.3419 29.0958L21.5797 31.8579L23.5049 33.7831L25.9774 32.6431L24.3419 29.0958ZM33.8612 24.7067L36.6233 21.9446L34.6981 20.0194L32.2256 21.1594L33.8612 24.7067ZM41.6543 32.4998L44.4164 35.262L47.1786 32.4998L44.4164 29.7377L41.6543 32.4998ZM39.4443 34.7098L36.6822 37.4719L39.4443 40.2341L42.2065 37.4719L39.4443 34.7098ZM37.2347 32.5001L39.9968 29.738L37.2347 26.9758L34.4725 29.738L37.2347 32.5001ZM33.9201 35.8147L31.158 33.0525L28.3958 35.8147L31.158 38.5768L33.9201 35.8147ZM41.6541 43.5487L38.8919 46.3108L41.6541 49.0729L44.4162 46.3108L41.6541 43.5487ZM44.9686 40.2341L47.7308 42.9962L50.4929 40.2341L47.7308 37.472L44.9686 40.2341ZM42.7589 38.0243L39.9968 35.2622L37.2346 38.0243L39.9968 40.7865L42.7589 38.0243ZM44.9689 35.8144L47.731 33.0522L44.9689 30.2901L42.2067 33.0522L44.9689 35.8144ZM47.1783 38.0238L44.4162 40.786L47.1783 43.5481L49.9405 40.786L47.1783 38.0238ZM50.4929 34.7093L53.255 37.4714L56.0172 34.7093L53.255 31.9472L50.4929 34.7093ZM37.1758 21.3922L33.6284 19.7566L32.4884 22.2291L34.4136 24.1543L37.1758 21.3922ZM41.5648 11.8728L45.1122 13.5084L46.2522 11.0359L44.327 9.11067L41.5648 11.8728ZM25.0596 14.5023L36.8475 9.06724L33.5764 1.97254L21.7884 7.40757L25.0596 14.5023ZM21.5363 24.3784L26.9713 12.5905L19.8766 9.31935L14.4416 21.1073L21.5363 24.3784ZM27.104 26.3336L20.7511 19.9807L15.2268 25.505L21.5797 31.8579L27.104 26.3336ZM32.2256 21.1594L22.7063 25.5484L25.9774 32.6431L35.4968 28.2541L32.2256 21.1594ZM44.4164 29.7377L36.6233 21.9446L31.0991 27.4689L38.8922 35.262L44.4164 29.7377ZM42.2065 37.4719L44.4164 35.262L38.8922 29.7377L36.6822 31.9477L42.2065 37.4719ZM34.4725 35.2623L36.6822 37.4719L42.2065 31.9477L39.9968 29.738L34.4725 35.2623ZM36.6822 38.5768L39.9968 35.2623L34.4725 29.738L31.158 33.0525L36.6822 38.5768ZM44.4162 40.7865L36.6822 33.0525L31.158 38.5768L38.8919 46.3108L44.4162 40.7865ZM42.2065 37.472L38.8919 40.7865L44.4162 46.3108L47.7308 42.9962L42.2065 37.472ZM39.9968 40.7865L42.2065 42.9962L47.7308 37.472L45.521 35.2622L39.9968 40.7865ZM42.2067 33.0522L39.9968 35.2622L45.521 40.7865L47.731 38.5765L42.2067 33.0522ZM49.9405 35.2617L47.731 33.0522L42.2067 38.5765L44.4162 40.786L49.9405 35.2617ZM47.7308 31.9472L44.4162 35.2617L49.9405 40.786L53.255 37.4714L47.7308 31.9472ZM34.4136 24.1543L47.7308 37.4714L53.255 31.9472L39.9379 18.63L34.4136 24.1543ZM38.0175 10.2372L33.6284 19.7566L40.7231 23.0277L45.1122 13.5084L38.0175 10.2372ZM32.4498 8.28203L38.8027 14.6349L44.327 9.11067L37.9741 2.75775L32.4498 8.28203Z" fill="#191B1E" mask="url(#path-2-outside-1_1945_10944)"/>
</svg>
