<svg width="375" height="592" viewBox="0 0 375 592" fill="none" xmlns="http://www.w3.org/2000/svg">
<rect x="81" y="63" width="212" height="267" rx="8" fill="url(#paint0_linear_1243_15610)"/>
<path d="M81 355C81 350.582 84.5817 347 89 347H99V418H89C84.5817 418 81 414.418 81 410V355Z" fill="#576D2E"/>
<path d="M93 389L87 382.5L93 376" stroke="#161B0C" stroke-width="2" stroke-linecap="square"/>
<g clip-path="url(#clip0_1243_15610)">
<path opacity="0.2" d="M102 350H138V415H102V350Z" fill="url(#paint1_linear_1243_15610)"/>
<rect opacity="0.2" x="138" y="350" width="36" height="65" fill="url(#paint2_linear_1243_15610)"/>
<rect opacity="0.2" x="174" y="350" width="36" height="65" fill="url(#paint3_linear_1243_15610)"/>
<rect opacity="0.2" x="210" y="350" width="36" height="65" fill="url(#paint4_linear_1243_15610)"/>
<rect opacity="0.2" x="246" y="350" width="36" height="65" fill="url(#paint5_linear_1243_15610)"/>
</g>
<rect x="100.5" y="348.5" width="173" height="68" stroke="#576D2E" stroke-width="3"/>
<path d="M275 347H285C289.418 347 293 350.582 293 355V410C293 414.418 289.418 418 285 418H275V347Z" fill="#576D2E"/>
<path d="M281 389L287 382.5L281 376" stroke="#161B0C" stroke-width="2" stroke-linecap="square"/>
<path d="M177.755 119.914C177.223 120.897 176.303 121.611 175.22 121.886L166.559 124.079C164.513 124.597 162.416 123.436 161.77 121.427L154.973 100.313C154.403 98.5432 155.128 96.6143 156.722 95.6575L170.744 87.2401C172.015 86.4772 173.603 86.4796 174.872 87.2463L181.816 91.4434C183.148 92.2486 183.892 93.7534 183.723 95.3008L181.948 111.555C181.892 112.071 181.736 112.571 181.489 113.027L177.755 119.914Z" fill="#606673"/>
<path d="M170.642 201.338C170.292 202.416 170.416 203.593 170.983 204.575L184.286 227.602C185.371 229.481 187.757 230.152 189.662 229.115L244.347 199.334C245.911 198.483 246.723 196.701 246.341 194.962L236.845 151.79C236.506 150.251 235.295 149.054 233.752 148.733L209.612 143.715C208.145 143.41 206.63 143.951 205.688 145.116L178.105 179.227C177.797 179.608 177.562 180.041 177.411 180.506L170.642 201.338Z" fill="#41444D"/>
<path d="M149.136 146.182L149.424 146.229C155.346 147.206 161.102 149.011 166.521 151.592L166.854 151.75C169.725 153.117 172.967 150.749 172.537 147.599L170.853 135.241C170.626 133.574 169.38 132.228 167.736 131.872L160.302 130.263C159.098 130.002 157.84 130.311 156.894 131.1L147.225 139.163C144.595 141.356 145.757 145.625 149.136 146.182Z" fill="#41444D"/>
<path d="M192.731 239.993L185.116 259.182C183.072 264.334 186.759 269.953 192.299 270.129L207.195 270.601C208.574 270.645 209.878 269.975 210.645 268.83L226.117 245.741C227.053 244.344 227.015 242.51 226.022 241.152L218.94 231.475C217.864 230.005 215.932 229.448 214.239 230.118L194.976 237.75C193.95 238.156 193.138 238.968 192.731 239.993Z" fill="#212328"/>
<path d="M243.504 112.487C245.73 114.54 246.384 117.791 245.125 120.544L238.656 134.69C237.183 137.912 233.534 139.526 230.159 138.447L222.524 136.007C221.068 135.541 219.499 135.565 218.058 136.075L200.107 142.427C195.926 143.906 191.441 141.174 190.837 136.781L188.416 119.165C188.087 116.775 189.013 114.383 190.866 112.837L205.619 100.527C205.94 100.258 206.285 100.019 206.649 99.8128L216.515 94.2155C219.163 92.7133 222.478 93.0944 224.715 95.1582L243.504 112.487Z" fill="#606673"/>
<path d="M155.344 156.996C159.22 155.1 163.901 156.619 165.926 160.429L169.926 167.958C171.107 170.182 171.173 172.833 170.102 175.113L151.56 214.592C148.847 220.367 140.798 220.799 137.483 215.347L118.788 184.603C116.343 180.582 117.88 175.329 122.107 173.261L155.344 156.996Z" fill="#606673"/>
<path d="M107.867 229.546C107.817 226.172 109.659 223.054 112.638 221.469L114.429 220.516C117.114 219.087 120.339 219.111 123.002 220.579L135.35 227.384C136.019 227.753 136.639 228.206 137.194 228.731L162.882 253.056C163.259 253.413 163.604 253.802 163.914 254.218L182.511 279.207C185.266 282.908 184.775 288.094 181.375 291.213L177.786 294.505C174.876 297.173 170.568 297.634 167.16 295.642L143.178 281.624C142.224 281.066 141.38 280.337 140.69 279.473L109.923 240.98C108.676 239.42 107.983 237.49 107.954 235.493L107.867 229.546Z" fill="#2F323A"/>
<rect x="221" y="258" width="60" height="60" rx="20" fill="#3B472D"/>
<path d="M240.506 295.766L251 303L261.494 295.766V274.667L251 274.817L240.506 274.667V295.766Z" fill="#C4F668"/>
<rect x="123" y="342" width="5" height="81" rx="2.5" fill="#7F8596"/>
<defs>
<linearGradient id="paint0_linear_1243_15610" x1="187" y1="9.82312" x2="187" y2="330" gradientUnits="userSpaceOnUse">
<stop stop-color="#41444D"/>
<stop offset="1" stop-color="#212328"/>
</linearGradient>
<linearGradient id="paint1_linear_1243_15610" x1="138" y1="382.5" x2="102" y2="382.5" gradientUnits="userSpaceOnUse">
<stop stop-color="#212328"/>
<stop offset="1" stop-color="#3F444E"/>
</linearGradient>
<linearGradient id="paint2_linear_1243_15610" x1="174" y1="382.5" x2="138" y2="382.5" gradientUnits="userSpaceOnUse">
<stop stop-color="#212328"/>
<stop offset="1" stop-color="#3F444E"/>
</linearGradient>
<linearGradient id="paint3_linear_1243_15610" x1="210" y1="382.5" x2="174" y2="382.5" gradientUnits="userSpaceOnUse">
<stop stop-color="#212328"/>
<stop offset="1" stop-color="#3F444E"/>
</linearGradient>
<linearGradient id="paint4_linear_1243_15610" x1="246" y1="382.5" x2="210" y2="382.5" gradientUnits="userSpaceOnUse">
<stop stop-color="#212328"/>
<stop offset="1" stop-color="#3F444E"/>
</linearGradient>
<linearGradient id="paint5_linear_1243_15610" x1="282" y1="382.5" x2="246" y2="382.5" gradientUnits="userSpaceOnUse">
<stop stop-color="#212328"/>
<stop offset="1" stop-color="#3F444E"/>
</linearGradient>
<clipPath id="clip0_1243_15610">
<rect x="102" y="350" width="170" height="65" fill="white"/>
</clipPath>
</defs>
</svg>
