<svg width="24" height="24" viewBox="0 0 24 24" fill="none" xmlns="http://www.w3.org/2000/svg">
<path fill-rule="evenodd" clip-rule="evenodd" d="M16.4505 15.2599L12 19.8664L7.54954 15.2586C6.6696 14.3471 6.0704 13.1858 5.82771 11.9217C5.58502 10.6575 5.70975 9.34715 6.18611 8.15638C6.66247 6.9656 7.46907 5.94784 8.50394 5.23179C9.5388 4.51573 10.7554 4.13354 12 4.13354C13.2446 4.13354 14.4613 4.51573 15.4961 5.23179C16.531 5.94784 17.3376 6.9656 17.814 8.15638C18.2903 9.34715 18.415 10.6575 18.1724 11.9217C17.9297 13.1858 17.3305 14.3471 16.4505 15.2586V15.2599ZM12.0005 13.5736C13.7383 13.5736 15.147 12.1648 15.147 10.427C15.147 8.68923 13.7383 7.28047 12.0005 7.28047C10.2627 7.28047 8.8539 8.68923 8.8539 10.427C8.8539 12.1648 10.2627 13.5736 12.0005 13.5736Z" fill="white"/>
</svg>
