<svg width="64" height="50" viewBox="0 0 64 50" fill="none" xmlns="http://www.w3.org/2000/svg">
<rect x="10.625" y="10.1562" width="35.1562" height="35.1562" fill="#191B1E"/>
<mask id="path-2-outside-1_1945_10943" maskUnits="userSpaceOnUse" x="13.503" y="-2.68316" width="49.7663" height="51.8876" fill="black">
<rect fill="white" x="13.503" y="-2.68316" width="49.7663" height="51.8876"/>
<path fill-rule="evenodd" clip-rule="evenodd" d="M40.8736 5.8098C36.2891 4.5814 31.5769 7.30203 30.3485 11.8865L28.8958 17.308C28.8077 17.6368 28.7399 17.9663 28.6916 18.295L23.0125 18.8166L20.0175 29.9943L33.6716 39.6431L50.3208 38.1141L53.3158 26.9363L48.6585 23.6452C48.7811 23.3363 48.8871 23.0171 48.9752 22.6883L50.4279 17.2668C51.6563 12.6823 48.9357 7.97002 44.3512 6.74162L40.8736 5.8098ZM44.6289 20.7977L45.9001 16.0536C46.4585 13.9697 45.2218 11.8278 43.138 11.2694L39.6604 10.3376C37.5766 9.77921 35.4346 11.0159 34.8762 13.0997L33.6051 17.8438L39.6617 17.2876L44.6289 20.7977Z"/>
</mask>
<path fill-rule="evenodd" clip-rule="evenodd" d="M40.8736 5.8098C36.2891 4.5814 31.5769 7.30203 30.3485 11.8865L28.8958 17.308C28.8077 17.6368 28.7399 17.9663 28.6916 18.295L23.0125 18.8166L20.0175 29.9943L33.6716 39.6431L50.3208 38.1141L53.3158 26.9363L48.6585 23.6452C48.7811 23.3363 48.8871 23.0171 48.9752 22.6883L50.4279 17.2668C51.6563 12.6823 48.9357 7.97002 44.3512 6.74162L40.8736 5.8098ZM44.6289 20.7977L45.9001 16.0536C46.4585 13.9697 45.2218 11.8278 43.138 11.2694L39.6604 10.3376C37.5766 9.77921 35.4346 11.0159 34.8762 13.0997L33.6051 17.8438L39.6617 17.2876L44.6289 20.7977Z" fill="#FF5F54"/>
<path d="M30.3485 11.8865L34.1216 12.8975L30.3485 11.8865ZM28.8958 17.308L25.1226 16.297L28.8958 17.308ZM28.6916 18.295L29.0489 22.1849L32.1102 21.9038L32.5565 18.8622L28.6916 18.295ZM23.0125 18.8166L22.6553 14.9267L19.9441 15.1757L19.2394 17.8056L23.0125 18.8166ZM20.0175 29.9943L16.2443 28.9833L15.5396 31.6132L17.7632 33.1844L20.0175 29.9943ZM33.6716 39.6431L31.4173 42.8332L32.594 43.6647L34.0288 43.533L33.6716 39.6431ZM50.3208 38.1141L50.678 42.0039L53.3892 41.755L54.0939 39.1251L50.3208 38.1141ZM53.3158 26.9363L57.089 27.9473L57.7936 25.3174L55.5701 23.7462L53.3158 26.9363ZM48.6585 23.6452L45.0278 22.2039L43.8936 25.0612L46.4042 26.8353L48.6585 23.6452ZM48.9752 22.6883L52.7483 23.6993L48.9752 22.6883ZM50.4279 17.2668L46.6548 16.2558L50.4279 17.2668ZM44.6289 20.7977L42.3746 23.9878L46.9516 27.2221L48.4021 21.8087L44.6289 20.7977ZM45.9001 16.0536L42.127 15.0425L45.9001 16.0536ZM33.6051 17.8438L29.8319 16.8328L28.3814 22.2462L33.9623 21.7337L33.6051 17.8438ZM39.6617 17.2876L41.916 14.0974L40.7393 13.2659L39.3045 13.3977L39.6617 17.2876ZM34.1216 12.8975C34.7917 10.3969 37.362 8.91291 39.8626 9.58295L41.8846 2.03666C35.2163 0.249883 28.3621 4.20716 26.5753 10.8755L34.1216 12.8975ZM32.6689 18.3191L34.1216 12.8975L26.5753 10.8755L25.1226 16.297L32.6689 18.3191ZM32.5565 18.8622C32.5828 18.6827 32.62 18.5015 32.6689 18.3191L25.1226 16.297C24.9953 16.7722 24.8969 17.2498 24.8268 17.7279L32.5565 18.8622ZM23.3698 22.7065L29.0489 22.1849L28.3344 14.4051L22.6553 14.9267L23.3698 22.7065ZM23.7906 31.0053L26.7857 19.8276L19.2394 17.8056L16.2443 28.9833L23.7906 31.0053ZM35.9259 36.453L22.2718 26.8042L17.7632 33.1844L31.4173 42.8332L35.9259 36.453ZM49.9635 34.2242L33.3143 35.7532L34.0288 43.533L50.678 42.0039L49.9635 34.2242ZM49.5427 25.9253L46.5476 37.1031L54.0939 39.1251L57.089 27.9473L49.5427 25.9253ZM46.4042 26.8353L51.0615 30.1264L55.5701 23.7462L50.9128 20.4551L46.4042 26.8353ZM45.2021 21.6773C45.1532 21.8597 45.0948 22.0353 45.0278 22.2039L52.2891 25.0865C52.4674 24.6374 52.621 24.1745 52.7483 23.6993L45.2021 21.6773ZM46.6548 16.2558L45.2021 21.6773L52.7483 23.6993L54.201 18.2778L46.6548 16.2558ZM43.3402 10.5148C45.8408 11.1848 47.3248 13.7551 46.6548 16.2558L54.201 18.2778C55.9878 11.6095 52.0305 4.75524 45.3622 2.96847L43.3402 10.5148ZM39.8626 9.58295L43.3402 10.5148L45.3622 2.96847L41.8846 2.03666L39.8626 9.58295ZM48.4021 21.8087L49.6733 17.0646L42.127 15.0425L40.8558 19.7867L48.4021 21.8087ZM49.6733 17.0646C50.79 12.8969 48.3167 8.61298 44.149 7.49625L42.127 15.0425L42.127 15.0425L49.6733 17.0646ZM44.149 7.49625L40.6714 6.56443L38.6494 14.1107L42.127 15.0425L44.149 7.49625ZM40.6714 6.56443C36.5037 5.4477 32.2198 7.921 31.1031 12.0887L38.6494 14.1107L38.6494 14.1107L40.6714 6.56443ZM31.1031 12.0887L29.8319 16.8328L37.3782 18.8548L38.6494 14.1107L31.1031 12.0887ZM33.9623 21.7337L40.0189 21.1774L39.3045 13.3977L33.2478 13.9539L33.9623 21.7337ZM37.4074 20.4777L42.3746 23.9878L46.8833 17.6076L41.916 14.0974L37.4074 20.4777Z" fill="#191B1E" mask="url(#path-2-outside-1_1945_10943)"/>
<path fill-rule="evenodd" clip-rule="evenodd" d="M37.3036 30.2363C38.3448 30.1377 39.2635 29.4065 39.5501 28.337C39.9184 26.9623 39.1026 25.5492 37.7279 25.1809C36.3531 24.8125 34.94 25.6283 34.5717 27.0031C34.2851 28.0724 34.7151 29.1649 35.5673 29.771L32.6301 32.7081L38.3787 34.2485L37.3036 30.2363Z" fill="#191B1E"/>
</svg>
