<svg width="24" height="24" viewBox="0 0 24 24" fill="none" xmlns="http://www.w3.org/2000/svg">
<g clip-path="url(#clip0_1918_5532)">
<path fill-rule="evenodd" clip-rule="evenodd" d="M8.90458 4.19225L11.9636 0.711459L14.3282 15.3541C15.0109 15.3152 15.7123 15.4683 16.3488 15.8358C18.0874 16.8396 18.6831 19.0629 17.6793 20.8015C16.6755 22.5402 14.4522 23.1359 12.7136 22.1321C10.975 21.1283 10.3793 18.905 11.3831 17.1664C11.6433 16.7156 11.9855 16.3416 12.38 16.0525L11.5818 13.3284L8.69721 13.9625C8.64072 14.4373 8.4891 14.9085 8.23491 15.3488C7.23112 17.0874 5.00787 17.6832 3.26922 16.6793C1.53056 15.6755 0.934873 13.4523 1.93866 11.7137C2.94248 9.975 5.16568 9.37923 6.90438 10.3831C7.5408 10.7505 8.02409 11.2814 8.33185 11.892L10.8771 10.9238L8.90458 4.19225ZM5.87381 13.9856C5.62285 14.4203 5.06706 14.5692 4.6324 14.3182C4.19774 14.0673 4.04881 13.5115 4.29977 13.0768C4.55074 12.6421 5.10653 12.4932 5.5412 12.7442C5.97586 12.9951 6.12478 13.5509 5.87381 13.9856ZM15.3182 19.4383C15.0673 19.873 14.5115 20.0219 14.0768 19.771C13.6421 19.52 13.4932 18.9642 13.7442 18.5296C13.9951 18.0949 14.5509 17.9459 14.9856 18.1969C15.4203 18.4479 15.5692 19.0036 15.3182 19.4383ZM21.1036 11.2354L22.195 6.6186L15.1785 9.28762L15.6908 12.4252L21.1036 11.2354Z" fill="#F3F5FC"/>
</g>
<defs>
<clipPath id="clip0_1918_5532">
<rect width="24" height="24" fill="white"/>
</clipPath>
</defs>
</svg>
