<svg width="28" height="28" viewBox="0 0 28 28" fill="none" xmlns="http://www.w3.org/2000/svg">
<rect width="28" height="28" rx="14" fill="#2F323A"/>
<g clip-path="url(#clip0_464_2096)">
<path d="M9.371 10.2496L11.273 12.1516L10.2125 13.2121L6.5 9.49961L10.2125 5.78711L11.273 6.84761L9.371 8.74961H14.75C16.3413 8.74961 17.8674 9.38175 18.9926 10.507C20.1179 11.6322 20.75 13.1583 20.75 14.7496C20.75 16.3409 20.1179 17.867 18.9926 18.9923C17.8674 20.1175 16.3413 20.7496 14.75 20.7496H8V19.2496H14.75C15.9435 19.2496 17.0881 18.7755 17.932 17.9316C18.7759 17.0877 19.25 15.9431 19.25 14.7496C19.25 13.5561 18.7759 12.4115 17.932 11.5676C17.0881 10.7237 15.9435 10.2496 14.75 10.2496H9.371Z" fill="#606673"/>
</g>
<defs>
<clipPath id="clip0_464_2096">
<rect width="18" height="18" fill="white" transform="translate(5 5)"/>
</clipPath>
</defs>
</svg>
