<svg width="375" height="592" viewBox="0 0 375 592" fill="none" xmlns="http://www.w3.org/2000/svg">
<path d="M59 84C59 69.0883 71.0883 57 86 57H289C303.912 57 316 69.0883 316 84V492H59V84Z" fill="#212328" stroke="#41444D" stroke-width="10"/>
<rect x="162.114" y="400.114" width="49.7714" height="49.7714" rx="24.8857" stroke="white" stroke-width="2.22857"/>
<rect x="176.6" y="414.6" width="20.8" height="20.8" rx="4.45714" fill="#FF4C3F"/>
<path d="M114.289 395.743C113.753 396.719 112.833 397.427 111.753 397.696L102.129 400.098C100.093 400.606 98.0097 399.454 97.3581 397.459L89.9964 374.921C89.4142 373.138 90.1482 371.191 91.7619 370.236L107.02 361.209C108.28 360.464 109.846 360.466 111.104 361.215L118.788 365.793C120.135 366.595 120.889 368.111 120.717 369.67L118.808 386.896C118.75 387.418 118.59 387.923 118.337 388.383L114.289 395.743Z" fill="#191B1E"/>
<path d="M207.827 308.723C207.227 307.784 207.045 306.639 207.325 305.561L209.819 295.96C210.347 293.929 212.355 292.651 214.419 293.033L237.733 297.349C239.576 297.69 240.936 299.267 241.002 301.14L241.631 318.858C241.683 320.321 240.932 321.695 239.672 322.441L231.977 327C230.628 327.799 228.936 327.736 227.65 326.839L213.435 316.923C213.004 316.622 212.637 316.24 212.354 315.798L207.827 308.723Z" fill="#2F323A"/>
<path d="M118.286 199.179L119.284 199.343C125.207 200.32 130.962 202.125 136.382 204.706L137.319 205.152C140.19 206.519 143.432 204.151 143.002 201L141.196 187.748C140.969 186.082 139.723 184.735 138.079 184.379L130.164 182.666C128.96 182.405 127.703 182.714 126.756 183.503L116.376 192.16C113.746 194.353 114.908 198.621 118.286 199.179Z" fill="#41444D"/>
<path d="M285.306 162.461L267.623 162.06C266.03 162.023 264.568 162.936 263.9 164.382L260.936 170.806C259.915 173.018 261.092 175.622 263.428 176.316L274.965 179.746C276.502 180.203 278.164 179.698 279.186 178.462L287.838 168.008C288.818 166.824 288.878 165.129 287.985 163.879C287.365 163.011 286.372 162.486 285.306 162.461Z" fill="#939AAE"/>
<path d="M248.89 156.616C250.589 158.183 251.405 160.487 251.071 162.774L245.016 204.18C244.391 208.457 240.076 211.151 235.959 209.835L229.028 207.62C227.957 207.278 226.82 207.198 225.712 207.389L188.549 213.774C183.707 214.606 179.536 210.321 180.499 205.503L189.412 160.911C189.725 159.344 190.565 157.932 191.791 156.908L208.352 143.089C208.674 142.821 209.018 142.582 209.383 142.375L219.84 136.442C222.487 134.94 225.802 135.321 228.04 137.385L248.89 156.616Z" fill="#2F323A"/>
<path d="M164.982 110.418C168.858 108.521 173.539 110.04 175.563 113.85L179.942 122.092C181.124 124.316 181.189 126.967 180.118 129.246L160.518 170.978C157.806 176.753 149.756 177.185 146.442 171.733L126.513 138.96C124.067 134.939 125.605 129.686 129.832 127.618L164.982 110.418Z" fill="#41444D"/>
<path d="M169.982 314.418C173.858 312.521 178.539 314.04 180.563 317.85L184.942 326.092C186.124 328.316 186.189 330.967 185.118 333.246L165.518 374.978C162.806 380.753 154.756 381.185 151.442 375.733L131.513 342.96C129.067 338.939 130.605 333.686 134.832 331.618L169.982 314.418Z" fill="#2F323A"/>
<path opacity="0.6" d="M150.453 315.613C149.259 316.59 147.609 316.794 146.213 316.135L140.639 313.506C139.21 312.832 138.311 311.379 138.347 309.799L138.741 292.301C138.804 289.49 141.671 287.62 144.269 288.695L164.042 296.878C166.837 298.035 167.387 301.754 165.046 303.67L150.453 315.613Z" fill="#41444D"/>
<path fill-rule="evenodd" clip-rule="evenodd" d="M251.921 150.505C252.345 148.904 253.988 147.95 255.589 148.374L278.976 154.575L278.975 154.581L280.041 154.863C281.642 155.288 282.597 156.93 282.172 158.532L281.771 160.044C281.346 161.646 279.704 162.6 278.102 162.175L277.036 161.893L274.377 171.921C273.811 174.057 271.621 175.329 269.486 174.763L267.924 174.349L193.133 207.177L178.816 258H142.728L139.326 221.769L106.945 237.36C104.48 238.547 101.52 237.533 100.3 235.084L93.0557 220.54L93 220.5L93.0187 220.466L93 220.429L93.0555 220.399L112.5 185L112.503 185.001L119.181 171.849C119.931 170.372 121.737 169.782 123.214 170.532L140.552 179.335L140.55 179.339C142.024 180.091 142.612 181.895 141.862 183.371L141.753 183.586C141.004 185.062 139.201 185.652 137.724 184.905L134.165 191.915C133.165 193.885 130.757 194.671 128.787 193.67L127.288 192.909L120.636 205.713L137 197H152.55C149.13 193.724 147 189.111 147 184C147 174.059 155.059 166 165 166C174.941 166 183 174.059 183 184C183 185.583 182.796 187.118 182.412 188.581L249.651 159.067L251.921 150.505Z" fill="url(#paint0_linear_1243_15571)"/>
<path fill-rule="evenodd" clip-rule="evenodd" d="M143.001 257.691L238.266 230.751C240.923 229.999 243.686 231.544 244.437 234.201L248.82 249.697L249.209 249.996L218.544 289.925L201.622 276.929L212.888 262.259L163.579 279.16L101.521 355.578L84 343.401L143.136 258.311L143.001 257.691Z" fill="#191B1E"/>
<ellipse cx="175.319" cy="175.105" rx="1.86619" ry="2.48825" transform="rotate(-33.5455 175.319 175.105)" fill="#212328"/>
<path d="M94.2285 328.674L110.362 339.878C118.495 345.526 120.509 356.698 114.861 364.831L84.0015 343.4L94.2285 328.674Z" fill="#41444D"/>
<path d="M201.625 276.93L222.107 278.898C231.45 279.797 238.296 288.099 237.398 297.442L199.999 293.847L201.625 276.93Z" fill="#41444D"/>
<rect x="139.395" y="181.629" width="1.2" height="9.47813" transform="rotate(26.92 139.395 181.629)" fill="#212328"/>
<path d="M137 197H153L182.5 188.5L200 181L207 201L193.5 207L182 247L143 259L139.5 222L127.5 227.5L124 204L137 197Z" fill="url(#paint1_linear_1243_15571)"/>
<path opacity="0.2" d="M162.5 204.5L159.5 231.5" stroke="#2F323A" stroke-width="2"/>
<path opacity="0.2" d="M170.499 201.5C170.333 204.833 171.999 212.3 179.999 215.5" stroke="#2F323A" stroke-width="2"/>
<path opacity="0.2" d="M154.501 203C154.667 206.333 153.001 213.8 145.001 217" stroke="#2F323A" stroke-width="2"/>
<rect y="348" width="375" height="149" fill="url(#paint2_linear_1243_15571)"/>
<defs>
<linearGradient id="paint0_linear_1243_15571" x1="187.636" y1="148.273" x2="187.636" y2="289" gradientUnits="userSpaceOnUse">
<stop stop-color="#C4F668"/>
<stop offset="1" stop-color="#3B4230"/>
</linearGradient>
<linearGradient id="paint1_linear_1243_15571" x1="165.5" y1="181" x2="165.5" y2="259" gradientUnits="userSpaceOnUse">
<stop stop-color="white"/>
<stop offset="1" stop-color="#999999"/>
</linearGradient>
<linearGradient id="paint2_linear_1243_15571" x1="187.5" y1="348" x2="187.5" y2="577.708" gradientUnits="userSpaceOnUse">
<stop stop-color="#191B1E" stop-opacity="0"/>
<stop offset="0.0557447" stop-color="#191B1E" stop-opacity="0.0467113"/>
<stop offset="0.537371" stop-color="#191B1E"/>
</linearGradient>
</defs>
</svg>
