<svg width="24" height="25" viewBox="0 0 24 25" fill="none" xmlns="http://www.w3.org/2000/svg">
<path d="M14.5781 2.5H9.42102L8.82942 5.44273C8.3396 5.66096 7.87384 5.92906 7.43958 6.24273L4.57761 5.28L2 9.72L4.26855 11.7018C4.21377 12.2325 4.21377 12.7675 4.26855 13.2982L2 15.28L4.57852 19.72L7.43958 18.7582C7.87117 19.0691 8.33566 19.3382 8.82942 19.5573L9.42102 22.5H14.5781L15.1697 19.5573C15.6595 19.339 16.1252 19.0709 16.5595 18.7573L19.4215 19.72L22 15.28L19.7305 13.2982C19.7853 12.7675 19.7853 12.2325 19.7305 11.7018L21.9991 9.72L19.4206 5.28L16.5604 6.24182C16.1261 5.92847 15.6604 5.66068 15.1706 5.44273L14.5781 2.5ZM11.9995 16.1364C11.0295 16.1364 10.0992 15.7532 9.41332 15.0713C8.72741 14.3893 8.34207 13.4644 8.34207 12.5C8.34207 11.5356 8.72741 10.6107 9.41332 9.9287C10.0992 9.24675 11.0295 8.86364 11.9995 8.86364C12.9696 8.86364 13.8999 9.24675 14.5858 9.9287C15.2717 10.6107 15.657 11.5356 15.657 12.5C15.657 13.4644 15.2717 14.3893 14.5858 15.0713C13.8999 15.7532 12.9696 16.1364 11.9995 16.1364Z" fill="white"/>
</svg>
