<svg width="28" height="28" viewBox="0 0 28 28" fill="none" xmlns="http://www.w3.org/2000/svg">
<rect width="28" height="28" rx="14" fill="#2F323A"/>
<g clip-path="url(#clip0_2411_5917)">
<path d="M18.629 10.2501H13.25C12.0565 10.2501 10.9119 10.7242 10.068 11.5681C9.22411 12.412 8.75 13.5566 8.75 14.7501C8.75 15.9436 9.22411 17.0882 10.068 17.9321C10.9119 18.776 12.0565 19.2501 13.25 19.2501H20V20.7501H13.25C11.6587 20.7501 10.1326 20.118 9.00736 18.9927C7.88214 17.8675 7.25 16.3414 7.25 14.7501C7.25 13.1588 7.88214 11.6327 9.00736 10.5075C10.1326 9.38224 11.6587 8.7501 13.25 8.7501H18.629L16.727 6.8481L17.7875 5.7876L21.5 9.5001L17.7875 13.2126L16.727 12.1521L18.629 10.2501Z" fill="white"/>
</g>
<defs>
<clipPath id="clip0_2411_5917">
<rect width="18" height="18" fill="white" transform="translate(5 5)"/>
</clipPath>
</defs>
</svg>
