<svg width="28" height="28" viewBox="0 0 28 28" fill="none" xmlns="http://www.w3.org/2000/svg">
<rect width="28" height="28" rx="14" fill="#2F323A"/>
<path d="M11.5228 9.05188L18.828 13.6751C18.8804 13.7083 18.9238 13.7558 18.954 13.8129C18.9841 13.87 19 13.9347 19 14.0005C19 14.0663 18.9841 14.131 18.954 14.188C18.9238 14.2451 18.8804 14.2927 18.828 14.3259L11.5228 18.9491C11.4699 18.9826 11.4097 19.0003 11.3484 19.0005C11.2872 19.0006 11.2269 18.9832 11.1739 18.95C11.1208 18.9168 11.0767 18.8689 11.0462 18.8113C11.0157 18.7536 10.9997 18.6882 11 18.6218V9.37769C11 9.31134 11.0161 9.24616 11.0467 9.18873C11.0774 9.1313 11.1214 9.08365 11.1745 9.0506C11.2275 9.01755 11.2876 9.00027 11.3488 9.00049C11.4099 9.00072 11.47 9.01844 11.5228 9.05188Z" fill="white"/>
</svg>
