<svg width="24" height="24" viewBox="0 0 24 24" fill="none" xmlns="http://www.w3.org/2000/svg">
<path fill-rule="evenodd" clip-rule="evenodd" d="M11.0768 4.39417C11.4874 3.68306 12.5138 3.68306 12.9243 4.39417L21.0257 18.4262C21.4363 19.1373 20.9231 20.0262 20.102 20.0262H3.89919C3.07807 20.0262 2.56487 19.1373 2.97543 18.4262L11.0768 4.39417ZM13.3511 9.53884L10.651 9.82132L10.9336 15.0019L12.9744 14.8449L13.3511 9.53884ZM12.0008 18.2982C12.6598 18.2982 13.1941 17.7639 13.1941 17.1049C13.1941 16.446 12.6598 15.9117 12.0008 15.9117C11.3418 15.9117 10.8076 16.446 10.8076 17.1049C10.8076 17.7639 11.3418 18.2982 12.0008 18.2982Z" fill="white"/>
</svg>
