<svg width="28" height="28" viewBox="0 0 28 28" fill="none" xmlns="http://www.w3.org/2000/svg">
<rect width="28" height="28" rx="14" fill="#2F323A"/>
<g clip-path="url(#clip0_2411_5914)">
<path d="M9.371 10.2501L11.273 12.1521L10.2125 13.2126L6.5 9.5001L10.2125 5.7876L11.273 6.8481L9.371 8.7501H14.75C16.3413 8.7501 17.8674 9.38224 18.9926 10.5075C20.1179 11.6327 20.75 13.1588 20.75 14.7501C20.75 16.3414 20.1179 17.8675 18.9926 18.9927C17.8674 20.118 16.3413 20.7501 14.75 20.7501H8V19.2501H14.75C15.9435 19.2501 17.0881 18.776 17.932 17.9321C18.7759 17.0882 19.25 15.9436 19.25 14.7501C19.25 13.5566 18.7759 12.412 17.932 11.5681C17.0881 10.7242 15.9435 10.2501 14.75 10.2501H9.371Z" fill="white"/>
</g>
<defs>
<clipPath id="clip0_2411_5914">
<rect width="18" height="18" fill="white" transform="translate(5 5)"/>
</clipPath>
</defs>
</svg>
