<svg width="64" height="50" viewBox="0 0 64 50" fill="none" xmlns="http://www.w3.org/2000/svg">
<rect x="10.125" y="10.1562" width="35.1562" height="35.1562" fill="#191B1E"/>
<mask id="path-2-outside-1_1945_10942" maskUnits="userSpaceOnUse" x="17.0625" y="5.15625" width="44" height="40" fill="black">
<rect fill="white" x="17.0625" y="5.15625" width="44" height="40"/>
<path fill-rule="evenodd" clip-rule="evenodd" d="M41.375 29.257L52.5629 25.1302V23.1769L57 23.1769V17.1005H52.5629V15.1476L39.0312 10.1562L25.4996 15.1476V17.1005H21.0625V23.1769L25.4996 23.1769V25.1302L36.6875 29.257V32.1181H32.9549V36.4589H29.4826V41.1464H48.5798V36.4589H45.1077V32.1181H41.375V29.257Z"/>
</mask>
<path fill-rule="evenodd" clip-rule="evenodd" d="M41.375 29.257L52.5629 25.1302V23.1769L57 23.1769V17.1005H52.5629V15.1476L39.0312 10.1562L25.4996 15.1476V17.1005H21.0625V23.1769L25.4996 23.1769V25.1302L36.6875 29.257V32.1181H32.9549V36.4589H29.4826V41.1464H48.5798V36.4589H45.1077V32.1181H41.375V29.257Z" fill="#DEFAAB"/>
<path d="M52.5629 25.1302L53.9147 28.7951L56.4691 27.8529V25.1302H52.5629ZM41.375 29.257L40.0232 25.5921L37.4688 26.5344V29.257H41.375ZM52.5629 23.1769V19.2706L48.6566 19.2706V23.1769H52.5629ZM57 23.1769V27.0831H60.9062V23.1769H57ZM57 17.1005H60.9062V13.1942H57V17.1005ZM52.5629 17.1005H48.6566V21.0067H52.5629V17.1005ZM52.5629 15.1476H56.4691V12.4249L53.9147 11.4827L52.5629 15.1476ZM39.0312 10.1562L40.3831 6.49137L39.0312 5.99273L37.6794 6.49137L39.0312 10.1562ZM25.4996 15.1476L24.1478 11.4827L21.5934 12.4249V15.1476H25.4996ZM25.4996 17.1005V21.0067H29.4059V17.1005H25.4996ZM21.0625 17.1005V13.1942H17.1562V17.1005H21.0625ZM21.0625 23.1769H17.1562V27.0831H21.0625L21.0625 23.1769ZM25.4996 23.1769H29.4059V19.2706L25.4996 19.2706L25.4996 23.1769ZM25.4996 25.1302H21.5934V27.8529L24.1478 28.7951L25.4996 25.1302ZM36.6875 29.257H40.5938V26.5344L38.0393 25.5921L36.6875 29.257ZM36.6875 32.1181V36.0243H40.5938V32.1181H36.6875ZM32.9549 32.1181V28.2118H29.0486V32.1181H32.9549ZM32.9549 36.4589V40.3651H36.8611V36.4589H32.9549ZM29.4826 36.4589V32.5526H25.5764V36.4589H29.4826ZM29.4826 41.1464H25.5764V45.0526H29.4826V41.1464ZM48.5798 41.1464V45.0526H52.4861V41.1464H48.5798ZM48.5798 36.4589H52.4861V32.5526H48.5798V36.4589ZM45.1077 36.4589H41.2014V40.3651H45.1077V36.4589ZM45.1077 32.1181H49.0139V28.2118H45.1077V32.1181ZM41.375 32.1181H37.4688V36.0243H41.375V32.1181ZM51.2111 21.4653L40.0232 25.5921L42.7268 32.9219L53.9147 28.7951L51.2111 21.4653ZM48.6566 23.1769V25.1302H56.4691V23.1769H48.6566ZM57 19.2706L52.5629 19.2706V27.0831L57 27.0831V19.2706ZM53.0938 17.1005V23.1769H60.9062V17.1005H53.0938ZM52.5629 21.0067H57V13.1942H52.5629V21.0067ZM48.6566 15.1476V17.1005H56.4691V15.1476H48.6566ZM37.6794 13.8211L51.2111 18.8124L53.9147 11.4827L40.3831 6.49137L37.6794 13.8211ZM26.8514 18.8124L40.3831 13.8211L37.6794 6.49137L24.1478 11.4827L26.8514 18.8124ZM29.4059 17.1005V15.1476H21.5934V17.1005H29.4059ZM21.0625 21.0067H25.4996V13.1942H21.0625V21.0067ZM24.9688 23.1769V17.1005H17.1562V23.1769H24.9688ZM25.4996 19.2706L21.0625 19.2706L21.0625 27.0831L25.4996 27.0831L25.4996 19.2706ZM29.4059 25.1302V23.1769H21.5934V25.1302H29.4059ZM38.0393 25.5921L26.8514 21.4653L24.1478 28.7951L35.3357 32.9219L38.0393 25.5921ZM40.5938 32.1181V29.257H32.7812V32.1181H40.5938ZM32.9549 36.0243H36.6875V28.2118H32.9549V36.0243ZM36.8611 36.4589V32.1181H29.0486V36.4589H36.8611ZM29.4826 40.3651H32.9549V32.5526H29.4826V40.3651ZM33.3889 41.1464V36.4589H25.5764V41.1464H33.3889ZM48.5798 37.2401H29.4826V45.0526H48.5798V37.2401ZM44.6736 36.4589V41.1464H52.4861V36.4589H44.6736ZM45.1077 40.3651H48.5798V32.5526H45.1077V40.3651ZM41.2014 32.1181V36.4589H49.0139V32.1181H41.2014ZM41.375 36.0243H45.1077V28.2118H41.375V36.0243ZM37.4688 29.257V32.1181H45.2812V29.257H37.4688Z" fill="#191B1E" mask="url(#path-2-outside-1_1945_10942)"/>
</svg>
